<?xml version="1.0" encoding="UTF-8" standalone="no"?>
<svg
   version="1.1"
   id="svg41117"
   viewBox="0 0 200 154.81912"
   height="154.81912"
   width="200"
   preserveAspectRatio="xMidYMid"
   sodipodi:docname="sony.svg"
   inkscape:version="1.2.2 (b0a8486541, 2022-12-01)"
   xmlns:inkscape="http://www.inkscape.org/namespaces/inkscape"
   xmlns:sodipodi="http://sodipodi.sourceforge.net/DTD/sodipodi-0.dtd"
   xmlns="http://www.w3.org/2000/svg"
   xmlns:svg="http://www.w3.org/2000/svg"
   xmlns:rdf="http://www.w3.org/1999/02/22-rdf-syntax-ns#"
   xmlns:cc="http://creativecommons.org/ns#"
   xmlns:dc="http://purl.org/dc/elements/1.1/">
  <sodipodi:namedview
     id="namedview7"
     pagecolor="#ffffff"
     bordercolor="#000000"
     borderopacity="0.25"
     inkscape:showpageshadow="2"
     inkscape:pageopacity="0.0"
     inkscape:pagecheckerboard="0"
     inkscape:deskcolor="#d1d1d1"
     showgrid="false"
     inkscape:zoom="5.4127681"
     inkscape:cx="99.48699"
     inkscape:cy="77.409561"
     inkscape:window-width="1920"
     inkscape:window-height="1017"
     inkscape:window-x="0"
     inkscape:window-y="0"
     inkscape:window-maximized="1"
     inkscape:current-layer="svg41117" />
  <metadata
     id="metadata41126">
    <rdf:RDF>
      <cc:Work
         rdf:about="">
        <dc:format>image/svg+xml</dc:format>
        <dc:type
           rdf:resource="http://purl.org/dc/dcmitype/StillImage" />
        <dc:title />
      </cc:Work>
    </rdf:RDF>
  </metadata>
  <defs
     id="defs41119">
    <style
       id="style41121">

      .cls-2 {
        fill: #ffffff;
      }
    </style>
  </defs>
  <path
     style="fill:#000000;fill-opacity:1;fill-rule:evenodd"
     class="cls-2"
     id="path-1"
     d="m 197.23914,117.96194 c -3.8677,4.8796 -13.34356,8.36053 -13.34356,8.36053 0,0 -70.49109,25.31994 -70.49109,25.31994 0,0 0,-18.67289 0,-18.67289 0,0 51.87665,-18.48401 51.87665,-18.48401 5.887,-2.10924 6.79096,-5.09097 2.00581,-6.65604 -4.77616,-1.56957 -13.42451,-1.11983 -19.31601,0.99841 0,0 -34.56645,12.17426 -34.56645,12.17426 0,0 0,-19.37898 0,-19.37898 0,0 1.99232,-0.6746 1.99232,-0.6746 0,0 9.98856,-3.534896 24.03371,-5.09097 14.04515,-1.547081 31.24291,0.211374 44.74389,5.32933 15.21445,4.80764 16.92793,11.89543 13.06473,16.77502 z M 120.11451,86.165853 c 0,0 0,-47.752601 0,-47.752601 0,-5.608163 -1.03439,-10.771093 -6.29626,-12.232725 -4.0296,-1.290734 -6.53012,2.45104 -6.53012,8.054706 0,0 0,119.583887 0,119.583887 0,0 -32.250314,-10.23591 -32.250314,-10.23591 0,0 0,-142.58321 0,-142.58321 13.712343,2.54549 33.689454,8.56291 44.429074,12.18326 27.31226,9.376917 36.57225,21.047482 36.57225,47.343343 0,25.630256 -15.82159,35.344478 -35.92463,25.63925 z M 15.862004,131.01768 C 0.24279269,126.6193 -2.3566614,117.45375 4.7626047,112.17389 c 6.5795883,-4.8751 17.7689333,-8.54492 17.7689333,-8.54492 0,0 46.241498,-16.442224 46.241498,-16.442224 0,0 0,18.744854 0,18.744854 0,0 -33.275709,11.90892 -33.275709,11.90892 -5.878004,2.10924 -6.781967,5.09547 -2.005807,6.66054 4.780657,1.56506 13.433512,1.11983 19.320511,-0.99391 0,0 15.961005,-5.79256 15.961005,-5.79256 0,0 0,16.77053 0,16.77053 -1.011893,0.17989 -2.140724,0.35978 -3.184104,0.53518 -15.965505,2.60845 -32.969893,1.5201 -49.726928,-4.00262 z m 171.105246,7.42508 c 2.0193,0 3.91267,0.78254 5.33832,2.22618 1.42566,1.42115 2.21269,3.31903 2.21269,5.33383 0,2.02379 -0.78703,3.91267 -2.21269,5.33383 -1.42565,1.43464 -3.31902,2.21718 -5.33832,2.21718 -2.0193,0 -3.90818,-0.78254 -5.33833,-2.21718 -1.42565,-1.42116 -2.20818,-3.31004 -2.20818,-5.33383 0,-4.16453 3.38198,-7.56001 7.54651,-7.56001 z m -6.27827,7.56001 c 0,1.6775 0.65211,3.25606 1.83941,4.43436 1.18279,1.19629 2.76585,1.8439 4.43886,1.8439 3.46743,0 6.27826,-2.81532 6.27826,-6.27826 0,-1.682 -0.64761,-3.26056 -1.8394,-4.44336 -1.1828,-1.19629 -2.76586,-1.83941 -4.43886,-1.83941 -1.67301,0 -3.25607,0.64312 -4.43886,1.83941 -1.1873,1.1828 -1.83941,2.76136 -1.83941,4.44336 z m 8.55841,-4.07008 c 0.82751,0.36428 1.24576,1.06586 1.24576,2.06427 0,0.5127 -0.10794,0.94444 -0.3283,1.28174 -0.15741,0.24285 -0.38228,0.44074 -0.63413,0.61163 0.19788,0.11694 0.37328,0.25635 0.50371,0.41826 0.17988,0.23386 0.28332,0.60713 0.29682,1.11533 0,0 0.0405,1.07486 0.0405,1.07486 0.0135,0.28783 0.0315,0.5082 0.0765,0.64312 0.045,0.19788 0.13042,0.32381 0.23835,0.36429 0,0 0.11244,0.054 0.11244,0.054 0,0 0,0.12143 0,0.12143 0,0 0,0.18439 0,0.18439 0,0 0,0.18439 0,0.18439 0,0 -0.18439,0 -0.18439,0 0,0 -1.33571,0 -1.33571,0 0,0 -0.10793,0 -0.10793,0 0,0 -0.054,-0.0944 -0.054,-0.0944 -0.045,-0.0899 -0.0764,-0.19338 -0.10793,-0.3283 -0.0225,-0.12143 -0.045,-0.3328 -0.0585,-0.65661 0,0 -0.0675,-1.33571 -0.0675,-1.33571 -0.018,-0.46322 -0.1754,-0.75105 -0.47222,-0.90396 -0.18439,-0.0854 -0.49021,-0.12592 -0.90396,-0.12592 0,0 -2.28914,0 -2.28914,0 0,0 0,3.26056 0,3.26056 0,0 0,0.18439 0,0.18439 0,0 -0.18889,0 -0.18889,0 0,0 -1.08836,0 -1.08836,0 0,0 -0.18438,0 -0.18438,0 0,0 0,-0.18439 0,-0.18439 0,0 0,-8.03672 0,-8.03672 0,0 0,-0.18439 0,-0.18439 0,0 0.18438,0 0.18438,0 0,0 3.71929,0 3.71929,0 0.63863,0 1.17381,0.0944 1.58756,0.28782 z m -4.0296,3.38648 c 0,0 2.32961,0 2.32961,0 0.46772,0 0.841,-0.0855 1.10634,-0.26084 0.24286,-0.1754 0.35979,-0.49471 0.35979,-0.95793 0,-0.5037 -0.1664,-0.83201 -0.51719,-1.0074 -0.19338,-0.0944 -0.46323,-0.14841 -0.80503,-0.14841 0,0 -2.47352,0 -2.47352,0 0,0 0,2.37458 0,2.37458 z" />
  <path
     style="fill:#000000;fill-opacity:0;stroke:#000000;stroke-width:0.184748"
     d="M 90.988565,148.55443 75.192581,143.52495 75.146156,72.362907 C 75.10448,8.4797759 75.128748,1.2008643 75.383411,1.2008643 c 1.16374,0 12.055451,2.5988156 19.833904,4.7324664 14.658555,4.0208817 27.096055,8.1105293 33.955585,11.1651363 6.69309,2.980492 11.48208,6.07446 15.5486,10.04531 7.25687,7.08614 10.48113,15.604109 11.11218,29.356571 0.82969,18.081211 -4.76182,29.457538 -16.02123,32.596359 -1.67355,0.466541 -2.06184,0.503413 -5.31565,0.504775 -2.97606,0.0013 -3.79367,-0.06208 -5.37292,-0.416127 -2.47414,-0.554672 -4.74723,-1.284467 -7.04651,-2.262334 l -1.88878,-0.803284 -0.0563,-25.970646 -0.0563,-25.970645 -0.4076,-1.523664 c -1.01327,-3.787798 -2.82098,-5.750034 -6.09133,-6.612042 -2.35894,-0.621775 -4.22342,0.3569 -5.35053,2.808526 -1.0323,2.245402 -0.97352,-1.611869 -0.977,64.123344 -0.003,48.39933 -0.0498,60.64018 -0.23414,60.62647 -0.12702,-0.009 -7.339133,-2.28044 -16.026925,-5.04665 z"
     id="path305" />
  <path
     style="fill:#000000;fill-opacity:0;stroke:#000000;stroke-width:0.184748"
     d="m 113.53074,142.23159 0.003,-9.21277 25.90808,-9.21325 c 14.24944,-5.06728 26.59001,-9.52864 27.42347,-9.91412 1.78468,-0.82543 2.68113,-1.47087 3.19282,-2.2988 1.08969,-1.76316 -0.32874,-3.27557 -3.92185,-4.18167 -1.19648,-0.30173 -2.322,-0.40484 -5.22032,-0.47823 -4.09942,-0.1038 -6.67543,0.14097 -10.00061,0.95027 -1.02942,0.25055 -9.79015,3.2443 -19.46829,6.65279 -9.67813,3.40848 -17.66991,6.19724 -17.75949,6.19724 -0.0925,0 -0.14222,-4.12211 -0.11504,-9.54363 l 0.0478,-9.54364 1.29324,-0.44141 c 7.06453,-2.411306 17.06099,-4.480023 26.32664,-5.448171 3.43639,-0.359061 14.40489,-0.299588 18.29009,0.09917 6.35746,0.652503 12.16816,1.689606 17.20496,3.070773 3.46858,0.95114 9.87052,3.139398 12.32135,4.211578 5.16742,2.26063 8.47805,5.13302 9.46931,8.21583 0.54224,1.68638 0.43138,3.17037 -0.36379,4.86961 -1.39836,2.98823 -6.40992,6.68591 -12.58232,9.28363 -1.43311,0.60314 -70.6533,25.54642 -71.72855,25.84716 -0.30482,0.0853 -0.32314,-0.43622 -0.32043,-9.12236 z"
     id="path307" />
  <path
     style="fill:#000000;fill-opacity:0;stroke:#000000;stroke-width:0.184748"
     d="m 43.138741,136.1365 c -9.403231,-0.66379 -17.098765,-2.09895 -26.123983,-4.87194 -7.1148211,-2.18602 -10.1794729,-3.74635 -13.0650761,-6.65192 -4.02938415,-4.05726 -3.71571492,-8.79901 0.8107192,-12.25566 2.6748903,-2.0427 7.4393349,-4.57016 12.4211959,-6.58924 1.320951,-0.53536 13.438134,-4.8981 26.927073,-9.694963 L 68.634014,87.3512 v 9.26001 9.26001 l -16.488791,5.8943 c -9.068834,3.24186 -17.048884,6.12336 -17.733446,6.40333 -3.441385,1.40745 -4.861368,3.38422 -3.550274,4.94237 2.140301,2.5436 11.584321,3.18098 19.23894,1.29844 0.896004,-0.22036 5.287114,-1.7294 9.758024,-3.35343 4.470911,-1.62403 8.274417,-2.99434 8.452238,-3.04514 0.304454,-0.087 0.323309,0.38718 0.323309,8.13046 v 8.22282 l -0.415684,0.10073 c -0.969376,0.23491 -6.725621,1.06053 -9.283604,1.33155 -2.639212,0.27963 -13.376533,0.51064 -15.795985,0.33985 z"
     id="path309" />
</svg>
